{"title":"STONED.2005.dvdrip.xvid.ac3-atilla82","uid":7054932,"size":1328753460,"categoryP":"video","categoryS":"movies","magnet":"?xt=urn:btih:50de13d1025d033a63d5f69b2e42bb2f011e83b7&amp;dn=STONED.2005.dvdrip.xvid.ac3-atilla82&amp;tr=udp%3A%2F%2Ftracker.openbittorrent.com%3A80&amp;tr=udp%3A%2F%2Fopen.demonii.com%3A1337&amp;tr=udp%3A%2F%2Ftracker.coppersurfer.tk%3A6969&amp;tr=udp%3A%2F%2Fexodus.desync.com%3A6969","seeders":1,"leechers":0,"uploader":"Atilla82","files":4,"time":1330080770,"description":"Stoned (2005)\n\nthe wild and wicked world of Brian Jones\n\n\n\nXvid | 640x360 | 25.00fps | 1345kbps | AC3 6ch | 448kbps | 1:38:15 | 1267 Mb\n\nSubtitles: ENGLISH (hearing impaired),  Croatian\n\nA chronicle of the sordid life and suspicious death of Rolling Stones co-founder Brian Jones, who was found in the bottom of his swimming pool weeks after being let go from the band. \n\n\n\n\nGeneral\nComplete name                            : STONED.2005.dvdrip.xvid.ac3-atilla82.avi\nFormat                                   : AVI\nFormat/Info                              : Audio Video Interleave\nFile size                                : 1.24 GiB\nDuration                                 : 1h 38mn\nOverall bit rate                         : 1 803 Kbps\nWriting application                      : VirtualDubMod 1.5.10.2 (build 2540/release)\nWriting library                          : VirtualDubMod build 2540/release\n\nVideo\nID                                       : 0\nFormat                                   : MPEG-4 Visual\nFormat profile                           : Advanced Simple@L5\nFormat settings, BVOP                    : 1\nFormat settings, QPel                    : No\nFormat settings, GMC                     : No warppoints\nFormat settings, Matrix                  : Default (H.263)\nCodec ID                                 : XVID\nCodec ID/Hint                            : XviD\nDuration                                 : 1h 38mn\nBit rate                                 : 1 345 Kbps\nWidth                                    : 640 pixels\nHeight                                   : 360 pixels\nDisplay aspect ratio                     : 16:9\nFrame rate                               : 25.000 fps\nColor space                              : YUV\nChroma subsampling                       : 4:2:0\nBit depth                                : 8 bits\nScan type                                : Progressive\nCompression mode                         : Lossy\nBits/(Pixel*Frame)                       : 0.234\nStream size                              : 945 MiB (75%)\nWriting library                          : XviD 1.2.1 (UTC 2008-12-04)\n\nAudio\nID                                       : 1\nFormat                                   : AC-3\nFormat/Info                              : Audio Coding 3\nMode extension                           : CM (complete main)\nCodec ID                                 : 2000\nDuration                                 : 1h 38mn\nBit rate mode                            : Constant\nBit rate                                 : 448 Kbps\nChannel(s)                               : 6 channels\nChannel positions                        : Front: L C R, Side: L R, LFE\nSampling rate                            : 48.0 KHz\nBit depth                                : 16 bits\nCompression mode                         : Lossy\nStream size                              : 315 MiB (25%)\nAlignment                                : Split accross interleaves\nInterleave, duration                     : 40 ms (1.00 video frame)\nInterleave, preload duration             : 500 ms\n\n\n\n\nSCREENSHOTS: &lt;a href=&quot;\nhttp://www.pohrani.com/f/I/Rs/2mHonpcT/stoned2005dvdripxvidac3-.jpg&quot; rel=&quot;nofollow&quot; target=&quot;_NEW&quot;&gt;\nhttp://www.pohrani.com/f/I/Rs/2mHonpcT/stoned2005dvdripxvidac3-.jpg&lt;/a&gt;\n\n","torrent":{"xt":"urn:btih:50de13d1025d033a63d5f69b2e42bb2f011e83b7","amp;dn":"STONED.2005.dvdrip.xvid.ac3-atilla82","amp;tr":["udp%3A%2F%2Ftracker.openbittorrent.com%3A80","udp%3A%2F%2Fopen.demonii.com%3A1337","udp%3A%2F%2Ftracker.coppersurfer.tk%3A6969","udp%3A%2F%2Fexodus.desync.com%3A6969"],"infoHash":"50de13d1025d033a63d5f69b2e42bb2f011e83b7","infoHashBuffer":{"type":"Buffer","data":[80,222,19,209,2,93,3,58,99,213,246,155,46,66,187,47,1,30,131,183]},"announce":[],"urlList":[]}}